<svg width="512" height="512" viewBox="0 0 512 512" fill="none" xmlns="http://www.w3.org/2000/svg">
<g clip-path="url(#clip0_105_1551)">
<path d="M15.9219 345.044C52.0929 442.528 145.928 512.001 255.999 512.001C366.07 512.001 459.905 442.528 496.076 345.044L255.999 322.784L15.9219 345.044Z" fill="#FFDA44"/>
<path d="M255.999 0.000976562C145.928 0.000976562 52.0929 69.473 15.9219 166.958L255.999 189.218L496.076 166.957C459.905 69.473 366.07 0.000976562 255.999 0.000976562Z" fill="black"/>
<path d="M15.923 166.958C5.633 194.691 0 224.687 0 256.001C0 287.315 5.633 317.311 15.923 345.044H496.078C506.368 317.311 512 287.315 512 256.001C512 224.687 506.368 194.691 496.077 166.958H15.923Z" fill="#D80027"/>
</g>
<defs>
<clipPath id="clip0_105_1551">
<rect width="512" height="512" fill="white" transform="translate(0 0.000976562)"/>
</clipPath>
</defs>
</svg>
