<svg width="513" height="512" viewBox="0 0 513 512" fill="none" xmlns="http://www.w3.org/2000/svg">
<g clip-path="url(#clip0_105_2071)">
<path d="M256.988 512C398.373 512 512.988 397.385 512.988 256C512.988 114.615 398.373 0 256.988 0C115.603 0 0.988281 114.615 0.988281 256C0.988281 397.385 115.603 512 256.988 512Z" fill="#F0F0F0"/>
<path d="M256.987 0C146.916 0 53.0812 69.472 16.9102 166.957H497.065C460.893 69.472 367.058 0 256.987 0V0Z" fill="#A2001D"/>
<path d="M256.987 512C367.058 512 460.893 442.528 497.064 345.043H16.9102C53.0812 442.528 146.916 512 256.987 512Z" fill="#0052B4"/>
</g>
<defs>
<clipPath id="clip0_105_2071">
<rect width="512" height="512" fill="white" transform="translate(0.988281)"/>
</clipPath>
</defs>
</svg>
